<?xml version="1.0" encoding="UTF-8" standalone="no"?>
<!-- Created with Inkscape (http://www.inkscape.org/) -->

<svg
   xmlns:dc="http://purl.org/dc/elements/1.1/"
   xmlns:cc="http://creativecommons.org/ns#"
   xmlns:rdf="http://www.w3.org/1999/02/22-rdf-syntax-ns#"
   xmlns:svg="http://www.w3.org/2000/svg"
   xmlns="http://www.w3.org/2000/svg"
   xmlns:sodipodi="http://sodipodi.sourceforge.net/DTD/sodipodi-0.dtd"
   xmlns:inkscape="http://www.inkscape.org/namespaces/inkscape"
   width="60"
   height="60"
   id="svg3629"
   version="1.1"
   inkscape:version="0.48.4 r9939"
   sodipodi:docname="logo.svg">
  <defs
     id="defs3631">
    <linearGradient
       x1="0"
       y1="0"
       x2="1"
       y2="0"
       gradientUnits="userSpaceOnUse"
       gradientTransform="matrix(3.026359,-2.3424072,1.6623662,4.2643824,41.83812,1015.5087)"
       spreadMethod="pad"
       id="linearGradient368">
      <stop
         style="stop-opacity:1;stop-color:#ed1c24"
         offset="0"
         id="stop370" />
      <stop
         style="stop-opacity:1;stop-color:#bf1b2c"
         offset="1"
         id="stop372" />
    </linearGradient>
    <linearGradient
       x1="0"
       y1="0"
       x2="1"
       y2="0"
       gradientUnits="userSpaceOnUse"
       gradientTransform="matrix(5.014738,-0.25695154,0.1823541,7.0661678,45.963065,1004.7482)"
       spreadMethod="pad"
       id="linearGradient388">
      <stop
         style="stop-opacity:1;stop-color:#ed1c24"
         offset="0"
         id="stop390" />
      <stop
         style="stop-opacity:1;stop-color:#bf1b2c"
         offset="1"
         id="stop392" />
    </linearGradient>
    <linearGradient
       x1="0"
       y1="0"
       x2="1"
       y2="0"
       gradientUnits="userSpaceOnUse"
       gradientTransform="matrix(8.6467243,-0.44305186,0.3144263,12.183927,31.489896,1003.1648)"
       spreadMethod="pad"
       id="linearGradient408">
      <stop
         style="stop-opacity:1;stop-color:#ed1c24"
         offset="0"
         id="stop410" />
      <stop
         style="stop-opacity:1;stop-color:#bf1b2c"
         offset="1"
         id="stop412" />
    </linearGradient>
    <linearGradient
       x1="0"
       y1="0"
       x2="1"
       y2="0"
       gradientUnits="userSpaceOnUse"
       gradientTransform="matrix(5.497473,-6.1908822,4.3935629,7.7463801,45.309336,1040.8242)"
       spreadMethod="pad"
       id="linearGradient440">
      <stop
         style="stop-opacity:1;stop-color:#ed1c24"
         offset="0"
         id="stop442" />
      <stop
         style="stop-opacity:1;stop-color:#bf1b2c"
         offset="1"
         id="stop444" />
    </linearGradient>
    <linearGradient
       x1="0"
       y1="0"
       x2="1"
       y2="0"
       gradientUnits="userSpaceOnUse"
       gradientTransform="matrix(4.074133,-4.2722088,3.0319133,5.7407799,30.890788,1035.953)"
       spreadMethod="pad"
       id="linearGradient328">
      <stop
         style="stop-opacity:1;stop-color:#ed1c24"
         offset="0"
         id="stop330" />
      <stop
         style="stop-opacity:1;stop-color:#bf1b2c"
         offset="1"
         id="stop332" />
    </linearGradient>
    <linearGradient
       x1="0"
       y1="0"
       x2="1"
       y2="0"
       gradientUnits="userSpaceOnUse"
       gradientTransform="matrix(8.9251375,12.576234,-8.9251375,12.576234,5.3219166,1012.4554)"
       spreadMethod="pad"
       id="linearGradient348">
      <stop
         style="stop-opacity:1;stop-color:#ed1c24"
         offset="0"
         id="stop350" />
      <stop
         style="stop-opacity:1;stop-color:#bf1b2c"
         offset="1"
         id="stop352" />
    </linearGradient>
  </defs>
  <sodipodi:namedview
     id="base"
     pagecolor="#ffffff"
     bordercolor="#666666"
     borderopacity="1.0"
     inkscape:pageopacity="0.0"
     inkscape:pageshadow="2"
     inkscape:zoom="5.8083333"
     inkscape:cx="30"
     inkscape:cy="60"
     inkscape:document-units="px"
     inkscape:current-layer="layer1"
     showgrid="false"
     inkscape:window-width="1375"
     inkscape:window-height="876"
     inkscape:window-x="65"
     inkscape:window-y="24"
     inkscape:window-maximized="1" />
  <metadata
     id="metadata3634">
    <rdf:RDF>
      <cc:Work
         rdf:about="">
        <dc:format>image/svg+xml</dc:format>
        <dc:type
           rdf:resource="http://purl.org/dc/dcmitype/StillImage" />
        <dc:title></dc:title>
      </cc:Work>
    </rdf:RDF>
  </metadata>
  <g
     inkscape:label="Layer 1"
     inkscape:groupmode="layer"
     id="layer1"
     transform="translate(0,-992.36218)">
    <path
       inkscape:connector-curvature="0"
       d="m 17.223141,1013.088 5.3397,22.2468 c 1.136245,-1.2132 2.27754,-2.7948 3.411539,-4.7312 l -8.672103,-17.529 c -0.02666,0 -0.05276,0.014 -0.07914,0.014"
       style="fill:#e91b2f;fill-opacity:1;fill-rule:nonzero;stroke:none"
       id="path310" />
    <path
       inkscape:connector-curvature="0"
       d="m 41.789691,1023.8199 4.518596,-7.1311 6.280911,7.287 6.908945,-17.4287 -7.737906,9.9679 -3.856045,-9.704 2.517191,-0.014 2.351345,-5.796 -2.057533,-5.53368 -5.509477,0.0958 -2.035922,5.65408 -10.584549,-3.65135 -7.473279,14.07985 c 1.343625,-1.6964 5.653437,-6.1196 6.537401,-7.2359 l 7.290592,3.0056 c -2.411676,7.2204 -4.497269,13.077 -7.01923,18.9316 -3.481412,8.0816 -7.831073,15.3183 -13.204169,16.4249 -7.858013,1.8221 -14.9100758,-8.0543 -13.6739304,-18.9834 1.2207115,-10.7917 9.2515874,-17.7895 17.1884564,-14.7514 -9.413228,-4.9906 -19.8482043,3.0059 -21.36497299,16.4127 -1.30153089,11.5063 4.61260539,22.2535 13.20949899,24.0046 2.033396,0.4145 4.033118,0.2824 5.921152,-0.3038 2.200648,-0.4889 4.623831,-1.6858 7.166278,-4.0192 1.189001,-1.0913 2.4041,-2.4326 3.635194,-4.066 1.710679,-2.2701 3.448299,-4.5419 5.191531,-8.0634 l 0.04097,-0.014 12.664249,2.4041 c -2.319071,6.008 -7.280771,9.6917 -12.551718,8.6177 -0.905291,-0.1841 -1.770172,-0.5025 -2.589031,-0.9299 l -3.418553,5.0739 c 0.302793,0.237 0.614004,0.4568 0.930547,0.6663 1.386559,0.9178 2.897436,1.5759 4.508213,1.9037 10.218336,2.0818 19.073407,-9.6784 17.526048,-23.4182 -3.712647,-1.1434 -7.846509,-2.2612 -11.310803,-3.4961"
       style="fill:#ed1c24;fill-opacity:1;fill-rule:nonzero;stroke:none"
       id="path314" />
    <path
       inkscape:connector-curvature="0"
       d="m 29.891376,1035.2193 2.087837,4.269 c 1.681495,-2.057 4.064829,-6.5498 4.064829,-6.5498 l 0,0 -5.804413,-0.9795 -0.348253,3.2603 z"
       style="fill:url(#linearGradient328);stroke:none"
       id="path334" />
    <path
       inkscape:connector-curvature="0"
       d="m 1.2408594,1023.3839 0.034237,0.036 c -1.11239073,11.4882 4.6524538,22.2373 16.1650236,19.6267 l 0,0 c -7.8953355,0.131 -13.4219308,-9.4149 -12.392885,-18.9872 l 0,0 c 1.1617805,-10.8046 9.154211,-17.8897 17.107637,-14.9374 l 0,0 c -1.88607,-0.9768 -3.811426,-1.4347 -5.694408,-1.4347 l 0,0 c -6.9695592,0 -13.3759086,6.2674 -15.2196035,15.6955"
       style="fill:url(#linearGradient348);stroke:none"
       id="path354" />
    <path
       inkscape:connector-curvature="0"
       d="m 43.402545,1021.1317 2.870215,-4.6188 -5.394983,-7.0944 2.524768,11.7132 z"
       style="fill:url(#linearGradient368);stroke:none"
       id="path374" />
    <path
       inkscape:connector-curvature="0"
       d="m 47.815066,1006.6181 2.51691,-0.041 -4.406908,-3.881 1.889998,3.9215 z"
       style="fill:url(#linearGradient388);stroke:none"
       id="path394" />
    <path
       inkscape:connector-curvature="0"
       d="m 31.547334,1004.3944 7.503025,2.9806 -6.182132,-8.87849 -1.320893,5.89789 z"
       style="fill:url(#linearGradient408);stroke:none"
       id="path414" />
    <path
       inkscape:connector-curvature="0"
       d="m 52.419618,1035.6074 -3.657926,-0.4073 c -2.101588,5.5466 -6.447882,9.1493 -11.235035,8.905 11.39078,2.5527 14.892961,-8.4977 14.892961,-8.4977"
       style="fill:#ed1c24;fill-opacity:1;fill-rule:nonzero;stroke:none"
       id="path426" />
    <path
       inkscape:connector-curvature="0"
       d="m 44.598562,1041.4776 c 3.305462,-1.3099 6.784629,-5.8218 6.784629,-5.8218 l 0,0 -2.621583,-0.4559 c -1.55353,4.0943 -4.163046,6.2777 -4.163046,6.2777"
       style="fill:url(#linearGradient440);stroke:none"
       id="path446" />
  </g>
</svg>
