<?xml version="1.0" encoding="UTF-8" standalone="no"?>
<!-- Created with Inkscape (http://www.inkscape.org/) -->

<svg
   xmlns:dc="http://purl.org/dc/elements/1.1/"
   xmlns:cc="http://creativecommons.org/ns#"
   xmlns:rdf="http://www.w3.org/1999/02/22-rdf-syntax-ns#"
   xmlns:svg="http://www.w3.org/2000/svg"
   xmlns="http://www.w3.org/2000/svg"
   xmlns:sodipodi="http://sodipodi.sourceforge.net/DTD/sodipodi-0.dtd"
   xmlns:inkscape="http://www.inkscape.org/namespaces/inkscape"
   width="744.09448819"
   height="1052.3622047"
   id="svg3554"
   version="1.1"
   inkscape:version="0.48.4 r9939"
   sodipodi:docname="New document 2">
  <defs
     id="defs3556">
    <linearGradient
       x1="0"
       y1="0"
       x2="1"
       y2="0"
       gradientUnits="userSpaceOnUse"
       gradientTransform="matrix(24.487779,-19.570555,19.570555,24.487779,444.92492,542.29385)"
       spreadMethod="pad"
       id="linearGradient440">
      <stop
         style="stop-opacity:1;stop-color:#ed1c24"
         offset="0"
         id="stop442" />
      <stop
         style="stop-opacity:1;stop-color:#bf1b2c"
         offset="1"
         id="stop444" />
    </linearGradient>
    <linearGradient
       x1="0"
       y1="0"
       x2="1"
       y2="0"
       gradientUnits="userSpaceOnUse"
       gradientTransform="matrix(18.147696,-13.505264,13.505264,18.147696,380.69937,526.89522)"
       spreadMethod="pad"
       id="linearGradient328">
      <stop
         style="stop-opacity:1;stop-color:#ed1c24"
         offset="0"
         id="stop330" />
      <stop
         style="stop-opacity:1;stop-color:#bf1b2c"
         offset="1"
         id="stop332" />
    </linearGradient>
    <linearGradient
       x1="0"
       y1="0"
       x2="1"
       y2="0"
       gradientUnits="userSpaceOnUse"
       gradientTransform="matrix(39.755866,39.755866,-39.755866,39.755866,266.80615,452.61509)"
       spreadMethod="pad"
       id="linearGradient348">
      <stop
         style="stop-opacity:1;stop-color:#ed1c24"
         offset="0"
         id="stop350" />
      <stop
         style="stop-opacity:1;stop-color:#bf1b2c"
         offset="1"
         id="stop352" />
    </linearGradient>
    <linearGradient
       x1="0"
       y1="0"
       x2="1"
       y2="0"
       gradientUnits="userSpaceOnUse"
       gradientTransform="matrix(13.480523,-7.4047941,7.4047941,13.480523,429.46284,462.26684)"
       spreadMethod="pad"
       id="linearGradient368">
      <stop
         style="stop-opacity:1;stop-color:#ed1c24"
         offset="0"
         id="stop370" />
      <stop
         style="stop-opacity:1;stop-color:#bf1b2c"
         offset="1"
         id="stop372" />
    </linearGradient>
    <linearGradient
       x1="0"
       y1="0"
       x2="1"
       y2="0"
       gradientUnits="userSpaceOnUse"
       gradientTransform="matrix(22.337499,-0.81227263,0.81227263,22.337499,447.83687,428.25097)"
       spreadMethod="pad"
       id="linearGradient388">
      <stop
         style="stop-opacity:1;stop-color:#ed1c24"
         offset="0"
         id="stop390" />
      <stop
         style="stop-opacity:1;stop-color:#bf1b2c"
         offset="1"
         id="stop392" />
    </linearGradient>
    <linearGradient
       x1="0"
       y1="0"
       x2="1"
       y2="0"
       gradientUnits="userSpaceOnUse"
       gradientTransform="matrix(38.515709,-1.4005711,1.4005711,38.515709,383.36802,423.24559)"
       spreadMethod="pad"
       id="linearGradient408">
      <stop
         style="stop-opacity:1;stop-color:#ed1c24"
         offset="0"
         id="stop410" />
      <stop
         style="stop-opacity:1;stop-color:#bf1b2c"
         offset="1"
         id="stop412" />
    </linearGradient>
  </defs>
  <sodipodi:namedview
     id="base"
     pagecolor="#ffffff"
     bordercolor="#666666"
     borderopacity="1.0"
     inkscape:pageopacity="0.0"
     inkscape:pageshadow="2"
     inkscape:zoom="0.35"
     inkscape:cx="375"
     inkscape:cy="520"
     inkscape:document-units="px"
     inkscape:current-layer="layer1"
     showgrid="false"
     inkscape:window-width="1375"
     inkscape:window-height="876"
     inkscape:window-x="65"
     inkscape:window-y="24"
     inkscape:window-maximized="1" />
  <metadata
     id="metadata3559">
    <rdf:RDF>
      <cc:Work
         rdf:about="">
        <dc:format>image/svg+xml</dc:format>
        <dc:type
           rdf:resource="http://purl.org/dc/dcmitype/StillImage" />
        <dc:title></dc:title>
      </cc:Work>
    </rdf:RDF>
  </metadata>
  <g
     inkscape:label="Layer 1"
     inkscape:groupmode="layer"
     id="layer1">
    <path
       inkscape:connector-curvature="0"
       d="m 319.81862,454.6146 23.785,70.32625 c 5.06125,-3.835 10.145,-8.835 15.19625,-14.95625 l -38.62875,-55.4125 c -0.11875,0.0125 -0.235,0.0288 -0.3525,0.0425"
       style="fill:#e91b2f;fill-opacity:1;fill-rule:nonzero;stroke:none"
       id="path310" />
    <path
       inkscape:connector-curvature="0"
       d="m 429.24712,488.54022 20.1275,-22.5425 27.9775,23.035 30.775,-55.095 -34.4675,31.51 -17.17625,-30.67625 11.2125,-0.0412 10.47375,-18.3225 -9.165,-17.4925 -24.54125,0.3025 -9.06875,17.87375 -47.1475,-11.5425 -33.28875,44.50875 c 5.985,-5.3625 25.1825,-19.345 29.12,-22.87375 l 32.475,9.50125 c -10.7425,22.825 -20.0325,41.33875 -31.26625,59.84625 -15.5075,25.5475 -34.8825,48.42375 -58.81625,51.9225 -35.0025,5.76 -66.415,-25.46125 -60.90875,-60.01 5.4375,-34.115 41.21,-56.23625 76.56375,-46.6325 -41.93,-15.77625 -88.41125,9.5025 -95.1675,51.88375 -5.7975,36.37375 20.54625,70.3475 58.84,75.88375 9.0575,1.31 17.965,0.8925 26.375,-0.96125 9.8025,-1.545 20.59625,-5.32875 31.92125,-12.705 5.29625,-3.45 10.70875,-7.69 16.1925,-12.85375 7.62,-7.17625 15.36,-14.3575 23.125,-25.49 l 0.1825,-0.0138 56.41125,7.6 c -10.33,18.9925 -32.43125,30.6375 -55.91,27.2425 -4.0325,-0.5825 -7.885,-1.58875 -11.5325,-2.94 l -15.2275,16.04 c 1.34875,0.74875 2.735,1.44375 4.145,2.10625 6.17625,2.90125 12.90625,4.98125 20.08125,6.0175 45.51625,6.58125 84.96,-30.595 78.0675,-74.02875 -16.5375,-3.615 -34.95125,-7.14875 -50.3825,-11.0525"
       style="fill:#ed1c24;fill-opacity:1;fill-rule:nonzero;stroke:none"
       id="path314" />
    <path
       inkscape:connector-curvature="0"
       d="m 376.24762,524.57597 9.3,13.495 c 7.49,-6.5025 18.10625,-20.705 18.10625,-20.705 l 0,0 -25.855,-3.09625 -1.55125,10.30625 z"
       style="fill:url(#linearGradient328);stroke:none"
       id="path334" />
    <path
       inkscape:connector-curvature="0"
       d="m 248.62762,487.16222 0.1525,0.1175 c -4.955,36.31625 20.72375,70.29625 72.005,62.04375 l 0,0 c -35.16875,0.4125 -59.78625,-29.7625 -55.2025,-60.0225 l 0,0 c 5.175,-34.155 40.77625,-56.5525 76.20375,-47.22 l 0,0 c -8.40125,-3.0875 -16.9775,-4.535 -25.365,-4.535 l 0,0 c -31.045,0 -59.58125,19.8125 -67.79375,49.61625"
       style="fill:url(#linearGradient348);stroke:none"
       id="path354" />
    <path
       inkscape:connector-curvature="0"
       d="m 436.43137,480.04222 12.785,-14.60125 -24.03125,-22.42625 11.24625,37.0275 z"
       style="fill:url(#linearGradient368);stroke:none"
       id="path374" />
    <path
       inkscape:connector-curvature="0"
       d="m 456.08637,434.16222 11.21125,-0.1275 -19.63,-12.26875 8.41875,12.39625 z"
       style="fill:url(#linearGradient388);stroke:none"
       id="path394" />
    <path
       inkscape:connector-curvature="0"
       d="m 383.62387,427.13222 33.42125,9.4225 -27.5375,-28.06625 -5.88375,18.64375 z"
       style="fill:url(#linearGradient408);stroke:none"
       id="path414" />
    <path
       inkscape:connector-curvature="0"
       d="m 441.75887,544.35972 c 14.72375,-4.14125 30.22125,-18.40375 30.22125,-18.40375 l 0,0 -11.6775,-1.44125 c -6.92,12.9425 -18.54375,19.845 -18.54375,19.845"
       style="fill:url(#linearGradient440);stroke:none"
       id="path446" />
  </g>
</svg>
